<svg class="main-svg" xmlns="http://www.w3.org/2000/svg" xmlns:xlink="http://www.w3.org/1999/xlink" width="1280" height="720" style="" viewBox="0 0 1280 720"><rect x="0" y="0" width="1280" height="720" style="fill: rgb(0, 0, 0); fill-opacity: 0;"/><defs id="defs-21e290"><g class="clips"><clipPath id="clip21e290xyplot" class="plotclip"><rect width="1067" height="639"/></clipPath><clipPath class="axesclip" id="clip21e290x"><rect x="42" y="0" width="1067" height="720"/></clipPath><clipPath class="axesclip" id="clip21e290y"><rect x="0" y="40" width="1280" height="639"/></clipPath><clipPath class="axesclip" id="clip21e290xy"><rect x="42" y="40" width="1067" height="639"/></clipPath></g><g class="gradients"/><g class="patterns"/></defs><g class="bglayer"><rect class="bg" x="42" y="40" width="1067" height="639" style="fill: rgb(0, 0, 0); fill-opacity: 0; stroke-width: 0;"/></g><g class="layer-below"><g class="imagelayer"/><g class="shapelayer"/></g><g class="cartesianlayer"><g class="subplot xy"><g class="layer-subplot"><g class="shapelayer"/><g class="imagelayer"/></g><g class="minor-gridlayer"><g class="x"/><g class="y"/></g><g class="gridlayer"><g class="x"><path class="xgrid crisp" transform="translate(80.57,0)" d="M0,40v639" style="stroke: rgb(211, 211, 211); stroke-opacity: 1; stroke-width: 1px;"/><path class="xgrid crisp" transform="translate(123.42,0)" d="M0,40v639" style="stroke: rgb(211, 211, 211); stroke-opacity: 1; stroke-width: 1px;"/><path class="xgrid crisp" transform="translate(166.26999999999998,0)" d="M0,40v639" style="stroke: rgb(211, 211, 211); stroke-opacity: 1; stroke-width: 1px;"/><path class="xgrid crisp" transform="translate(209.12,0)" d="M0,40v639" style="stroke: rgb(211, 211, 211); stroke-opacity: 1; stroke-width: 1px;"/><path class="xgrid crisp" transform="translate(251.97,0)" d="M0,40v639" style="stroke: rgb(211, 211, 211); stroke-opacity: 1; stroke-width: 1px;"/><path class="xgrid crisp" transform="translate(294.82,0)" d="M0,40v639" style="stroke: rgb(211, 211, 211); stroke-opacity: 1; stroke-width: 1px;"/><path class="xgrid crisp" transform="translate(337.67,0)" d="M0,40v639" style="stroke: rgb(211, 211, 211); stroke-opacity: 1; stroke-width: 1px;"/><path class="xgrid crisp" transform="translate(380.53,0)" d="M0,40v639" style="stroke: rgb(211, 211, 211); stroke-opacity: 1; stroke-width: 1px;"/><path class="xgrid crisp" transform="translate(423.38,0)" d="M0,40v639" style="stroke: rgb(211, 211, 211); stroke-opacity: 1; stroke-width: 1px;"/><path class="xgrid crisp" transform="translate(466.23,0)" d="M0,40v639" style="stroke: rgb(211, 211, 211); stroke-opacity: 1; stroke-width: 1px;"/><path class="xgrid crisp" transform="translate(509.08,0)" d="M0,40v639" style="stroke: rgb(211, 211, 211); stroke-opacity: 1; stroke-width: 1px;"/><path class="xgrid crisp" transform="translate(551.9300000000001,0)" d="M0,40v639" style="stroke: rgb(211, 211, 211); stroke-opacity: 1; stroke-width: 1px;"/><path class="xgrid crisp" transform="translate(594.78,0)" d="M0,40v639" style="stroke: rgb(211, 211, 211); stroke-opacity: 1; stroke-width: 1px;"/><path class="xgrid crisp" transform="translate(637.63,0)" d="M0,40v639" style="stroke: rgb(211, 211, 211); stroke-opacity: 1; stroke-width: 1px;"/><path class="xgrid crisp" transform="translate(680.49,0)" d="M0,40v639" style="stroke: rgb(211, 211, 211); stroke-opacity: 1; stroke-width: 1px;"/><path class="xgrid crisp" transform="translate(723.34,0)" d="M0,40v639" style="stroke: rgb(211, 211, 211); stroke-opacity: 1; stroke-width: 1px;"/><path class="xgrid crisp" transform="translate(766.19,0)" d="M0,40v639" style="stroke: rgb(211, 211, 211); stroke-opacity: 1; stroke-width: 1px;"/><path class="xgrid crisp" transform="translate(809.04,0)" d="M0,40v639" style="stroke: rgb(211, 211, 211); stroke-opacity: 1; stroke-width: 1px;"/><path class="xgrid crisp" transform="translate(851.89,0)" d="M0,40v639" style="stroke: rgb(211, 211, 211); stroke-opacity: 1; stroke-width: 1px;"/><path class="xgrid crisp" transform="translate(894.74,0)" d="M0,40v639" style="stroke: rgb(211, 211, 211); stroke-opacity: 1; stroke-width: 1px;"/><path class="xgrid crisp" transform="translate(937.59,0)" d="M0,40v639" style="stroke: rgb(211, 211, 211); stroke-opacity: 1; stroke-width: 1px;"/><path class="xgrid crisp" transform="translate(980.45,0)" d="M0,40v639" style="stroke: rgb(211, 211, 211); stroke-opacity: 1; stroke-width: 1px;"/><path class="xgrid crisp" transform="translate(1023.3,0)" d="M0,40v639" style="stroke: rgb(211, 211, 211); stroke-opacity: 1; stroke-width: 1px;"/><path class="xgrid crisp" transform="translate(1066.15,0)" d="M0,40v639" style="stroke: rgb(211, 211, 211); stroke-opacity: 1; stroke-width: 1px;"/></g><g class="y"><path class="ygrid crisp" transform="translate(0,640.36)" d="M42,0h1067" style="stroke: rgb(211, 211, 211); stroke-opacity: 1; stroke-width: 1px;"/><path class="ygrid crisp" transform="translate(0,487.42)" d="M42,0h1067" style="stroke: rgb(211, 211, 211); stroke-opacity: 1; stroke-width: 1px;"/><path class="ygrid crisp" transform="translate(0,334.49)" d="M42,0h1067" style="stroke: rgb(211, 211, 211); stroke-opacity: 1; stroke-width: 1px;"/><path class="ygrid crisp" transform="translate(0,181.55)" d="M42,0h1067" style="stroke: rgb(211, 211, 211); stroke-opacity: 1; stroke-width: 1px;"/></g></g><g class="zerolinelayer"/><path class="xlines-below"/><path class="ylines-below"/><g class="overlines-below"/><g class="xaxislayer-below"/><g class="yaxislayer-below"/><g class="overaxes-below"/><g class="plot" transform="translate(42,40)" clip-path="url(#clip21e290xyplot)"><g class="scatterlayer mlayer"><g class="trace scatter trace8a312d" style="stroke-miterlimit: 2; opacity: 1;"><g class="fills"/><g class="errorbars"/><g class="lines"><path class="js-line" d="M0,607.05L4.29,361.08L8.57,257.58L12.86,197.2L17.14,166.51L21.43,146.12L25.71,133.85L30,127.11L34.28,122.38L38.57,120.9L42.85,116.33L51.42,112.93L55.71,110.38L59.99,110.38L64.28,108.1L68.56,108.15L72.85,102.79L81.42,106.24L85.7,103.11L89.99,102.47L94.27,102.63L98.56,101.3L102.84,99.12L107.13,100.4L111.41,98.91L115.7,97.64L119.98,98.28L124.27,96.95L128.55,98.7L137.12,95.35L141.41,96.58L149.98,95.51L154.27,90.95L158.55,93.97L162.84,93.18L171.41,92.49L175.69,88.98L179.98,90.1L184.26,90.2L188.55,88.77L192.83,89.99L197.12,88.66L201.4,88.13L205.69,88.82L209.97,88.56L214.26,84.89L218.54,85.96L222.83,85.58L227.11,86.59L231.4,85.74L235.68,83.88L244.25,84.63L248.54,82.08L252.82,81.81L257.11,82.82L265.68,81.28L269.96,82.08L274.25,83.57L278.53,80.54L282.82,82.5L287.1,81.34L291.39,81.02L295.67,79.37L299.96,77.94L304.24,80.64L308.53,77.51L312.82,78.63L317.1,76.72L321.39,76.08L329.96,77.62L334.24,75.55L347.1,75.71L351.38,74.91L355.67,74.38L359.95,72.89L368.52,73.64L372.81,73.05L377.09,74.49L381.38,71.3L385.66,73L389.95,73.37L394.23,71.88L398.52,71.56L402.8,70.5L407.09,70.29L411.37,67.85L415.66,70.66L419.94,68.27L424.23,69.71L428.51,68.27L432.8,71.09L441.37,65.25L445.65,67.9L449.94,66.31L454.22,67.58L458.51,67.16L462.8,65.83L471.37,66.2L475.65,64.82L479.94,64.4L484.22,67.58L488.51,64.02L492.79,64.66L497.08,63.86L501.36,65.51L505.65,63.92L509.93,64.02L514.22,64.18L518.5,62.48L522.79,64.29L527.07,62.17L531.36,61.79L535.64,63.39L539.93,61.85L544.21,63.28L548.5,61.47L552.78,62.01L557.07,59.62L561.35,60.36L565.64,58.98L569.92,60.63L574.21,58.77L578.49,59.62L587.06,58.34L591.35,61.21L595.63,56.06L599.92,56.64L604.2,57.01L608.49,58.34L617.06,57.17L621.35,57.39L625.63,55.95L629.92,56.43L634.2,56.8L638.49,54.09L642.77,56.11L647.06,55.32L651.34,54.04L655.63,54.2L659.91,52.66L664.2,52.61L668.48,52.66L672.77,53.67L677.05,52.02L681.34,53.51L689.91,50.7L694.19,50.91L698.48,51.7L702.76,51.54L707.05,50.85L711.33,51.39L715.62,51.01L719.9,49.74L724.19,51.28L728.47,49.26L732.76,50.59L737.04,48.73L741.33,49.16L745.61,51.33L754.18,47.03L758.47,48.41L762.76,48.36L767.04,46.92L771.33,47.67L775.61,47.19L779.9,47.56L784.18,45.54L788.47,45.17L792.75,47.83L797.04,44.85L801.32,44.8L809.89,45.01L814.18,44L818.46,46.13L822.75,43.42L827.03,45.12L831.32,43.9L839.89,42.62L844.17,43.9L848.46,41.03L852.74,41.3L857.03,43.31L861.31,41.08L865.6,41.93L869.88,41.99L878.45,42.73L882.74,40.98L887.02,39.92L891.31,40.92L899.88,38.96L904.16,40.23L908.45,38.59L912.73,39.97L917.02,41.24L921.31,39.17L929.88,40.02L934.16,39.44L938.45,38.64L942.73,39.12L947.02,36.57L951.3,36.46L959.87,36.84L964.16,38.11L968.44,34.66L972.73,36.36L977.01,33.91L981.3,38.16L994.15,35.88L998.44,33.54L1002.72,34.76L1007.01,35.14L1011.29,34.61L1015.58,35.67L1019.86,34.5L1024.15,34.92L1028.43,34.07L1032.72,34.71L1041.29,33.81L1045.57,35.08L1049.86,32.8L1054.14,33.17L1058.43,33.22L1062.71,31.95L1067,32.06" style="vector-effect: none; fill: none; stroke: rgb(99, 110, 250); stroke-opacity: 1; stroke-width: 2px; opacity: 1;"/></g><g class="points"/><g class="text"/></g><g class="trace scatter traceb1af6f" style="stroke-miterlimit: 2; opacity: 1;"><g class="fills"/><g class="errorbars"/><g class="lines"><path class="js-line" d="M0,402.98L4.29,295.44L8.57,216.11L17.14,150.63L21.43,128.65L25.71,135.34L30,120.05L34.28,121.96L38.57,110.49L42.85,99.02L47.14,113.36L51.42,97.58L55.71,100.93L64.28,98.54L68.56,100.45L72.85,101.89L77.13,108.1L81.42,96.63L85.7,91.85L89.99,90.42L94.27,91.85L98.56,91.85L102.84,89.94L107.13,87.07L111.41,93.28L115.7,91.85L119.98,88.03L124.27,86.59L128.55,88.98L132.84,88.5L137.12,84.68L145.69,84.68L149.98,86.59L154.27,87.07L158.55,90.42L162.84,84.68L167.12,86.59L171.41,83.25L175.69,86.59L179.98,81.34L184.26,87.07L188.55,86.11L192.83,86.11L197.12,85.16L201.4,85.16L205.69,85.16L209.97,81.34L214.26,83.72L218.54,81.81L222.83,80.86L227.11,83.25L231.4,82.29L235.68,83.72L239.97,84.68L244.25,77.51L248.54,82.29L252.82,73.21L257.11,77.99L261.39,78.95L265.68,68.91L269.96,73.69L274.25,76.08L278.53,73.69L282.82,80.86L287.1,74.64L291.39,74.17L295.67,72.25L299.96,73.69L304.24,76.08L308.53,74.17L312.82,77.03L317.1,73.21L321.39,73.69L325.67,78.95L329.96,69.87L338.53,75.12L342.81,73.69L347.1,75.6L351.38,75.6L355.67,70.34L359.95,70.82L364.24,68.91L368.52,72.25L372.81,71.78L377.09,74.17L385.66,69.87L389.95,73.69L394.23,68.43L398.52,72.73L402.8,67.48L407.09,73.69L411.37,67L415.66,73.69L419.94,77.03L424.23,70.34L428.51,71.3L432.8,69.87L437.08,68.91L441.37,66.04L445.65,68.43L449.94,67.95L454.22,73.21L458.51,67L462.8,68.43L467.08,72.73L471.37,73.21L475.65,72.25L479.94,72.73L484.22,66.04L488.51,63.17L492.79,69.87L497.08,68.43L501.36,71.3L505.65,63.17L509.93,64.61L514.22,71.3L518.5,66.52L522.79,67.48L527.07,65.09L531.36,63.17L535.64,67.48L539.93,70.82L544.21,67.48L548.5,67.95L552.78,70.34L557.07,61.74L561.35,69.39L565.64,72.73L569.92,69.87L574.21,74.64L578.49,75.12L582.78,66.52L587.06,67.48L591.35,63.17L595.63,70.82L599.92,73.21L604.2,65.56L608.49,68.43L612.78,67.48L617.06,65.56L621.35,66.04L625.63,68.91L629.92,67.95L634.2,66.52L638.49,69.39L642.77,64.13L647.06,65.09L655.63,63.65L659.91,68.91L664.2,61.74L668.48,66.04L672.77,69.87L677.05,70.82L681.34,68.43L685.62,70.82L689.91,62.7L694.19,67.95L698.48,68.91L702.76,64.13L707.05,67L711.33,71.3L715.62,74.17L719.9,64.13L724.19,67.48L728.47,74.64L732.76,67.95L737.04,71.3L741.33,71.78L745.61,63.17L749.9,71.3L754.18,71.3L758.47,67.48L762.76,65.56L767.04,68.91L771.33,67L775.61,64.61L779.9,70.82L784.18,62.7L788.47,70.82L792.75,74.64L797.04,66.04L801.32,73.21L805.61,66.52L809.89,66.04L814.18,70.82L818.46,66.52L822.75,68.43L827.03,67.95L831.32,73.21L835.6,66.52L839.89,72.25L844.17,67.95L848.46,72.25L852.74,70.34L857.03,66.04L861.31,69.87L865.6,69.39L869.88,70.82L874.17,70.82L878.45,70.34L882.74,72.73L887.02,68.91L891.31,67L895.59,67.48L899.88,68.91L904.16,67.48L908.45,70.82L912.73,69.87L917.02,70.82L921.31,70.82L925.59,68.91L929.88,67L934.16,71.78L942.73,74.17L947.02,72.73L951.3,78.47L955.59,67.95L959.87,69.39L964.16,69.87L968.44,71.78L972.73,69.39L977.01,71.78L981.3,76.08L985.58,69.39L989.87,70.82L998.44,74.17L1002.72,69.39L1007.01,70.34L1011.29,70.34L1015.58,69.39L1019.86,72.73L1024.15,70.34L1028.43,70.34L1032.72,69.87L1037,73.21L1041.29,67L1045.57,68.43L1054.14,72.25L1058.43,68.91L1062.71,75.12L1067,65.56" style="vector-effect: none; fill: none; stroke: rgb(239, 85, 59); stroke-opacity: 1; stroke-width: 2px; opacity: 1;"/></g><g class="points"/><g class="text"/></g><g class="trace scatter tracef901ce" style="stroke-miterlimit: 2; opacity: 1;"><g class="fills"/><g class="errorbars"/><g class="lines"><path class="js-line" d="M0,67.38L1067,67.38" style="vector-effect: none; fill: none; stroke: rgb(0, 204, 150); stroke-opacity: 1; stroke-width: 2px; opacity: 1;"/></g><g class="points"/><g class="text"/></g></g></g><g class="overplot"/><path class="xlines-above crisp" d="M0,0" style="fill: none;"/><path class="ylines-above crisp" d="M0,0" style="fill: none;"/><g class="overlines-above"/><g class="xaxislayer-above"><g class="xtick"><text text-anchor="middle" x="0" y="692" transform="translate(80.57,0)" style="font-family: 'Open Sans', verdana, arial, sans-serif; font-size: 12px; fill: rgb(42, 63, 95); fill-opacity: 1; white-space: pre; opacity: 1;">10</text></g><g class="xtick"><text text-anchor="middle" x="0" y="692" style="font-family: 'Open Sans', verdana, arial, sans-serif; font-size: 12px; fill: rgb(42, 63, 95); fill-opacity: 1; white-space: pre; opacity: 1;" transform="translate(123.42,0)">20</text></g><g class="xtick"><text text-anchor="middle" x="0" y="692" style="font-family: 'Open Sans', verdana, arial, sans-serif; font-size: 12px; fill: rgb(42, 63, 95); fill-opacity: 1; white-space: pre; opacity: 1;" transform="translate(166.26999999999998,0)">30</text></g><g class="xtick"><text text-anchor="middle" x="0" y="692" style="font-family: 'Open Sans', verdana, arial, sans-serif; font-size: 12px; fill: rgb(42, 63, 95); fill-opacity: 1; white-space: pre; opacity: 1;" transform="translate(209.12,0)">40</text></g><g class="xtick"><text text-anchor="middle" x="0" y="692" style="font-family: 'Open Sans', verdana, arial, sans-serif; font-size: 12px; fill: rgb(42, 63, 95); fill-opacity: 1; white-space: pre; opacity: 1;" transform="translate(251.97,0)">50</text></g><g class="xtick"><text text-anchor="middle" x="0" y="692" style="font-family: 'Open Sans', verdana, arial, sans-serif; font-size: 12px; fill: rgb(42, 63, 95); fill-opacity: 1; white-space: pre; opacity: 1;" transform="translate(294.82,0)">60</text></g><g class="xtick"><text text-anchor="middle" x="0" y="692" style="font-family: 'Open Sans', verdana, arial, sans-serif; font-size: 12px; fill: rgb(42, 63, 95); fill-opacity: 1; white-space: pre; opacity: 1;" transform="translate(337.67,0)">70</text></g><g class="xtick"><text text-anchor="middle" x="0" y="692" style="font-family: 'Open Sans', verdana, arial, sans-serif; font-size: 12px; fill: rgb(42, 63, 95); fill-opacity: 1; white-space: pre; opacity: 1;" transform="translate(380.53,0)">80</text></g><g class="xtick"><text text-anchor="middle" x="0" y="692" style="font-family: 'Open Sans', verdana, arial, sans-serif; font-size: 12px; fill: rgb(42, 63, 95); fill-opacity: 1; white-space: pre; opacity: 1;" transform="translate(423.38,0)">90</text></g><g class="xtick"><text text-anchor="middle" x="0" y="692" style="font-family: 'Open Sans', verdana, arial, sans-serif; font-size: 12px; fill: rgb(42, 63, 95); fill-opacity: 1; white-space: pre; opacity: 1;" transform="translate(466.23,0)">100</text></g><g class="xtick"><text text-anchor="middle" x="0" y="692" style="font-family: 'Open Sans', verdana, arial, sans-serif; font-size: 12px; fill: rgb(42, 63, 95); fill-opacity: 1; white-space: pre; opacity: 1;" transform="translate(509.08,0)">110</text></g><g class="xtick"><text text-anchor="middle" x="0" y="692" style="font-family: 'Open Sans', verdana, arial, sans-serif; font-size: 12px; fill: rgb(42, 63, 95); fill-opacity: 1; white-space: pre; opacity: 1;" transform="translate(551.9300000000001,0)">120</text></g><g class="xtick"><text text-anchor="middle" x="0" y="692" style="font-family: 'Open Sans', verdana, arial, sans-serif; font-size: 12px; fill: rgb(42, 63, 95); fill-opacity: 1; white-space: pre; opacity: 1;" transform="translate(594.78,0)">130</text></g><g class="xtick"><text text-anchor="middle" x="0" y="692" style="font-family: 'Open Sans', verdana, arial, sans-serif; font-size: 12px; fill: rgb(42, 63, 95); fill-opacity: 1; white-space: pre; opacity: 1;" transform="translate(637.63,0)">140</text></g><g class="xtick"><text text-anchor="middle" x="0" y="692" style="font-family: 'Open Sans', verdana, arial, sans-serif; font-size: 12px; fill: rgb(42, 63, 95); fill-opacity: 1; white-space: pre; opacity: 1;" transform="translate(680.49,0)">150</text></g><g class="xtick"><text text-anchor="middle" x="0" y="692" style="font-family: 'Open Sans', verdana, arial, sans-serif; font-size: 12px; fill: rgb(42, 63, 95); fill-opacity: 1; white-space: pre; opacity: 1;" transform="translate(723.34,0)">160</text></g><g class="xtick"><text text-anchor="middle" x="0" y="692" style="font-family: 'Open Sans', verdana, arial, sans-serif; font-size: 12px; fill: rgb(42, 63, 95); fill-opacity: 1; white-space: pre; opacity: 1;" transform="translate(766.19,0)">170</text></g><g class="xtick"><text text-anchor="middle" x="0" y="692" style="font-family: 'Open Sans', verdana, arial, sans-serif; font-size: 12px; fill: rgb(42, 63, 95); fill-opacity: 1; white-space: pre; opacity: 1;" transform="translate(809.04,0)">180</text></g><g class="xtick"><text text-anchor="middle" x="0" y="692" style="font-family: 'Open Sans', verdana, arial, sans-serif; font-size: 12px; fill: rgb(42, 63, 95); fill-opacity: 1; white-space: pre; opacity: 1;" transform="translate(851.89,0)">190</text></g><g class="xtick"><text text-anchor="middle" x="0" y="692" style="font-family: 'Open Sans', verdana, arial, sans-serif; font-size: 12px; fill: rgb(42, 63, 95); fill-opacity: 1; white-space: pre; opacity: 1;" transform="translate(894.74,0)">200</text></g><g class="xtick"><text text-anchor="middle" x="0" y="692" style="font-family: 'Open Sans', verdana, arial, sans-serif; font-size: 12px; fill: rgb(42, 63, 95); fill-opacity: 1; white-space: pre; opacity: 1;" transform="translate(937.59,0)">210</text></g><g class="xtick"><text text-anchor="middle" x="0" y="692" style="font-family: 'Open Sans', verdana, arial, sans-serif; font-size: 12px; fill: rgb(42, 63, 95); fill-opacity: 1; white-space: pre; opacity: 1;" transform="translate(980.45,0)">220</text></g><g class="xtick"><text text-anchor="middle" x="0" y="692" style="font-family: 'Open Sans', verdana, arial, sans-serif; font-size: 12px; fill: rgb(42, 63, 95); fill-opacity: 1; white-space: pre; opacity: 1;" transform="translate(1023.3,0)">230</text></g><g class="xtick"><text text-anchor="middle" x="0" y="692" style="font-family: 'Open Sans', verdana, arial, sans-serif; font-size: 12px; fill: rgb(42, 63, 95); fill-opacity: 1; white-space: pre; opacity: 1;" transform="translate(1066.15,0)">240</text></g><g class="xtick"><text text-anchor="middle" x="0" y="692" style="font-family: 'Open Sans', verdana, arial, sans-serif; font-size: 12px; fill: rgb(42, 63, 95); fill-opacity: 1; white-space: pre; opacity: 1;" transform="translate(1109,0)">250</text></g></g><g class="yaxislayer-above"><g class="ytick"><text text-anchor="end" x="41" y="4.199999999999999" transform="translate(0,640.36)" style="font-family: 'Open Sans', verdana, arial, sans-serif; font-size: 12px; fill: rgb(42, 63, 95); fill-opacity: 1; white-space: pre; opacity: 1;">0.5</text></g><g class="ytick"><text text-anchor="end" x="41" y="4.199999999999999" style="font-family: 'Open Sans', verdana, arial, sans-serif; font-size: 12px; fill: rgb(42, 63, 95); fill-opacity: 1; white-space: pre; opacity: 1;" transform="translate(0,487.42)">0.6</text></g><g class="ytick"><text text-anchor="end" x="41" y="4.199999999999999" style="font-family: 'Open Sans', verdana, arial, sans-serif; font-size: 12px; fill: rgb(42, 63, 95); fill-opacity: 1; white-space: pre; opacity: 1;" transform="translate(0,334.49)">0.7</text></g><g class="ytick"><text text-anchor="end" x="41" y="4.199999999999999" style="font-family: 'Open Sans', verdana, arial, sans-serif; font-size: 12px; fill: rgb(42, 63, 95); fill-opacity: 1; white-space: pre; opacity: 1;" transform="translate(0,181.55)">0.8</text></g></g><g class="overaxes-above"/></g></g><g class="polarlayer"/><g class="smithlayer"/><g class="ternarylayer"/><g class="geolayer"/><g class="funnelarealayer"/><g class="pielayer"/><g class="iciclelayer"/><g class="treemaplayer"/><g class="sunburstlayer"/><g class="glimages"/><defs id="topdefs-21e290"><g class="clips"/><clipPath id="legend21e290"><rect width="150" height="86" x="0" y="0"/></clipPath></defs><g class="layer-above"><g class="imagelayer"/><g class="shapelayer"/></g><g class="infolayer"><g class="legend" pointer-events="all" transform="translate(1130,40)"><rect class="bg" shape-rendering="crispEdges" style="stroke: rgb(68, 68, 68); stroke-opacity: 1; fill: rgb(0, 0, 0); fill-opacity: 0; stroke-width: 0px;" width="150" height="86" x="0" y="0"/><g class="scrollbox" transform="" clip-path="url(#legend21e290)"><text class="legendtitletext" text-anchor="start" x="2" y="18.2" style="font-family: 'Open Sans', verdana, arial, sans-serif; font-size: 14px; fill: rgb(42, 63, 95); fill-opacity: 1; white-space: pre;">variable</text><g class="groups" transform=""><g class="traces" transform="translate(0,32.7)" style="opacity: 1;"><text class="legendtext" text-anchor="start" x="40" y="4.680000000000001" style="font-family: 'Open Sans', verdana, arial, sans-serif; font-size: 12px; fill: rgb(42, 63, 95); fill-opacity: 1; white-space: pre;">Training Accuracy</text><g class="layers" style="opacity: 1;"><g class="legendfill"/><g class="legendlines"><path class="js-line" d="M5,0h30" style="fill: none; stroke: rgb(99, 110, 250); stroke-opacity: 1; stroke-width: 2px;"/></g><g class="legendsymbols"><g class="legendpoints"/></g></g><rect class="legendtoggle" x="0" y="-9.5" width="144.5" height="19" style="fill: rgb(0, 0, 0); fill-opacity: 0;"/></g></g><g class="groups" transform=""><g class="traces" transform="translate(0,51.7)" style="opacity: 1;"><text class="legendtext" text-anchor="start" x="40" y="4.680000000000001" style="font-family: 'Open Sans', verdana, arial, sans-serif; font-size: 12px; fill: rgb(42, 63, 95); fill-opacity: 1; white-space: pre;">Validation Accuracy</text><g class="layers" style="opacity: 1;"><g class="legendfill"/><g class="legendlines"><path class="js-line" d="M5,0h30" style="fill: none; stroke: rgb(239, 85, 59); stroke-opacity: 1; stroke-width: 2px;"/></g><g class="legendsymbols"><g class="legendpoints"/></g></g><rect class="legendtoggle" x="0" y="-9.5" width="144.5" height="19" style="fill: rgb(0, 0, 0); fill-opacity: 0;"/></g></g><g class="groups" transform=""><g class="traces" transform="translate(0,70.7)" style="opacity: 1;"><text class="legendtext" text-anchor="start" x="40" y="4.680000000000001" style="font-family: 'Open Sans', verdana, arial, sans-serif; font-size: 12px; fill: rgb(42, 63, 95); fill-opacity: 1; white-space: pre;">Testing Accuracy</text><g class="layers" style="opacity: 1;"><g class="legendfill"/><g class="legendlines"><path class="js-line" d="M5,0h30" style="fill: none; stroke: rgb(0, 204, 150); stroke-opacity: 1; stroke-width: 2px;"/></g><g class="legendsymbols"><g class="legendpoints"/></g></g><rect class="legendtoggle" x="0" y="-9.5" width="144.5" height="19" style="fill: rgb(0, 0, 0); fill-opacity: 0;"/></g></g></g><rect class="scrollbar" rx="20" ry="3" width="0" height="0" style="fill: rgb(128, 139, 164); fill-opacity: 1;" x="0" y="0"/></g><g class="g-gtitle"><text class="gtitle" x="64" y="20" text-anchor="start" dy="0em" style="font-family: 'Open Sans', verdana, arial, sans-serif; font-size: 17px; fill: rgb(42, 63, 95); opacity: 1; font-weight: normal; white-space: pre;">Accuracy</text></g><g class="g-xtitle" transform="translate(0,-2.2999999999999545)"><text class="xtitle" x="575.5" y="719.3" text-anchor="middle" style="font-family: 'Open Sans', verdana, arial, sans-serif; font-size: 14px; fill: rgb(42, 63, 95); opacity: 1; font-weight: normal; white-space: pre;">Epochs</text></g><g class="g-ytitle" transform="translate(12.9873046875,0)"><text class="ytitle" transform="rotate(-90,0.012500000000002842,359.5)" x="0.012500000000002842" y="359.5" text-anchor="middle" style="font-family: 'Open Sans', verdana, arial, sans-serif; font-size: 14px; fill: rgb(42, 63, 95); opacity: 1; font-weight: normal; white-space: pre;">Accuracy</text></g></g></svg>