<svg class="main-svg" xmlns="http://www.w3.org/2000/svg" xmlns:xlink="http://www.w3.org/1999/xlink" width="1280" height="720" style="" viewBox="0 0 1280 720"><rect x="0" y="0" width="1280" height="720" style="fill: rgb(0, 0, 0); fill-opacity: 0;"/><defs id="defs-323c67"><g class="clips"><clipPath id="clip323c67xyplot" class="plotclip"><rect width="1090" height="639"/></clipPath><clipPath class="axesclip" id="clip323c67x"><rect x="42" y="0" width="1090" height="720"/></clipPath><clipPath class="axesclip" id="clip323c67y"><rect x="0" y="40" width="1280" height="639"/></clipPath><clipPath class="axesclip" id="clip323c67xy"><rect x="42" y="40" width="1090" height="639"/></clipPath></g><g class="gradients"/><g class="patterns"/></defs><g class="bglayer"><rect class="bg" x="42" y="40" width="1090" height="639" style="fill: rgb(0, 0, 0); fill-opacity: 0; stroke-width: 0;"/></g><g class="layer-below"><g class="imagelayer"/><g class="shapelayer"/></g><g class="cartesianlayer"><g class="subplot xy"><g class="layer-subplot"><g class="shapelayer"/><g class="imagelayer"/></g><g class="minor-gridlayer"><g class="x"/><g class="y"/></g><g class="gridlayer"><g class="x"><path class="xgrid crisp" transform="translate(81.4,0)" d="M0,40v639" style="stroke: rgb(211, 211, 211); stroke-opacity: 1; stroke-width: 1px;"/><path class="xgrid crisp" transform="translate(125.17,0)" d="M0,40v639" style="stroke: rgb(211, 211, 211); stroke-opacity: 1; stroke-width: 1px;"/><path class="xgrid crisp" transform="translate(168.95,0)" d="M0,40v639" style="stroke: rgb(211, 211, 211); stroke-opacity: 1; stroke-width: 1px;"/><path class="xgrid crisp" transform="translate(212.72,0)" d="M0,40v639" style="stroke: rgb(211, 211, 211); stroke-opacity: 1; stroke-width: 1px;"/><path class="xgrid crisp" transform="translate(256.5,0)" d="M0,40v639" style="stroke: rgb(211, 211, 211); stroke-opacity: 1; stroke-width: 1px;"/><path class="xgrid crisp" transform="translate(300.27,0)" d="M0,40v639" style="stroke: rgb(211, 211, 211); stroke-opacity: 1; stroke-width: 1px;"/><path class="xgrid crisp" transform="translate(344.05,0)" d="M0,40v639" style="stroke: rgb(211, 211, 211); stroke-opacity: 1; stroke-width: 1px;"/><path class="xgrid crisp" transform="translate(387.82,0)" d="M0,40v639" style="stroke: rgb(211, 211, 211); stroke-opacity: 1; stroke-width: 1px;"/><path class="xgrid crisp" transform="translate(431.6,0)" d="M0,40v639" style="stroke: rgb(211, 211, 211); stroke-opacity: 1; stroke-width: 1px;"/><path class="xgrid crisp" transform="translate(475.37,0)" d="M0,40v639" style="stroke: rgb(211, 211, 211); stroke-opacity: 1; stroke-width: 1px;"/><path class="xgrid crisp" transform="translate(519.15,0)" d="M0,40v639" style="stroke: rgb(211, 211, 211); stroke-opacity: 1; stroke-width: 1px;"/><path class="xgrid crisp" transform="translate(562.92,0)" d="M0,40v639" style="stroke: rgb(211, 211, 211); stroke-opacity: 1; stroke-width: 1px;"/><path class="xgrid crisp" transform="translate(606.7,0)" d="M0,40v639" style="stroke: rgb(211, 211, 211); stroke-opacity: 1; stroke-width: 1px;"/><path class="xgrid crisp" transform="translate(650.47,0)" d="M0,40v639" style="stroke: rgb(211, 211, 211); stroke-opacity: 1; stroke-width: 1px;"/><path class="xgrid crisp" transform="translate(694.25,0)" d="M0,40v639" style="stroke: rgb(211, 211, 211); stroke-opacity: 1; stroke-width: 1px;"/><path class="xgrid crisp" transform="translate(738.02,0)" d="M0,40v639" style="stroke: rgb(211, 211, 211); stroke-opacity: 1; stroke-width: 1px;"/><path class="xgrid crisp" transform="translate(781.8,0)" d="M0,40v639" style="stroke: rgb(211, 211, 211); stroke-opacity: 1; stroke-width: 1px;"/><path class="xgrid crisp" transform="translate(825.57,0)" d="M0,40v639" style="stroke: rgb(211, 211, 211); stroke-opacity: 1; stroke-width: 1px;"/><path class="xgrid crisp" transform="translate(869.35,0)" d="M0,40v639" style="stroke: rgb(211, 211, 211); stroke-opacity: 1; stroke-width: 1px;"/><path class="xgrid crisp" transform="translate(913.12,0)" d="M0,40v639" style="stroke: rgb(211, 211, 211); stroke-opacity: 1; stroke-width: 1px;"/><path class="xgrid crisp" transform="translate(956.9,0)" d="M0,40v639" style="stroke: rgb(211, 211, 211); stroke-opacity: 1; stroke-width: 1px;"/><path class="xgrid crisp" transform="translate(1000.67,0)" d="M0,40v639" style="stroke: rgb(211, 211, 211); stroke-opacity: 1; stroke-width: 1px;"/><path class="xgrid crisp" transform="translate(1044.45,0)" d="M0,40v639" style="stroke: rgb(211, 211, 211); stroke-opacity: 1; stroke-width: 1px;"/><path class="xgrid crisp" transform="translate(1088.22,0)" d="M0,40v639" style="stroke: rgb(211, 211, 211); stroke-opacity: 1; stroke-width: 1px;"/></g><g class="y"><path class="ygrid crisp" transform="translate(0,658.97)" d="M42,0h1090" style="stroke: rgb(211, 211, 211); stroke-opacity: 1; stroke-width: 1px;"/><path class="ygrid crisp" transform="translate(0,597.37)" d="M42,0h1090" style="stroke: rgb(211, 211, 211); stroke-opacity: 1; stroke-width: 1px;"/><path class="ygrid crisp" transform="translate(0,535.76)" d="M42,0h1090" style="stroke: rgb(211, 211, 211); stroke-opacity: 1; stroke-width: 1px;"/><path class="ygrid crisp" transform="translate(0,474.15)" d="M42,0h1090" style="stroke: rgb(211, 211, 211); stroke-opacity: 1; stroke-width: 1px;"/><path class="ygrid crisp" transform="translate(0,412.54)" d="M42,0h1090" style="stroke: rgb(211, 211, 211); stroke-opacity: 1; stroke-width: 1px;"/><path class="ygrid crisp" transform="translate(0,350.93)" d="M42,0h1090" style="stroke: rgb(211, 211, 211); stroke-opacity: 1; stroke-width: 1px;"/><path class="ygrid crisp" transform="translate(0,289.32)" d="M42,0h1090" style="stroke: rgb(211, 211, 211); stroke-opacity: 1; stroke-width: 1px;"/><path class="ygrid crisp" transform="translate(0,227.72)" d="M42,0h1090" style="stroke: rgb(211, 211, 211); stroke-opacity: 1; stroke-width: 1px;"/><path class="ygrid crisp" transform="translate(0,166.11)" d="M42,0h1090" style="stroke: rgb(211, 211, 211); stroke-opacity: 1; stroke-width: 1px;"/><path class="ygrid crisp" transform="translate(0,104.5)" d="M42,0h1090" style="stroke: rgb(211, 211, 211); stroke-opacity: 1; stroke-width: 1px;"/><path class="ygrid crisp" transform="translate(0,42.89)" d="M42,0h1090" style="stroke: rgb(211, 211, 211); stroke-opacity: 1; stroke-width: 1px;"/></g></g><g class="zerolinelayer"/><path class="xlines-below"/><path class="ylines-below"/><g class="overlines-below"/><g class="xaxislayer-below"/><g class="yaxislayer-below"/><g class="overaxes-below"/><g class="plot" transform="translate(42,40)" clip-path="url(#clip323c67xyplot)"><g class="scatterlayer mlayer"><g class="trace scatter trace074758" style="stroke-miterlimit: 2; opacity: 1;"><g class="fills"/><g class="errorbars"/><g class="lines"><path class="js-line" d="M0,31.95L4.38,288.3L8.76,374.51L13.13,424.39L17.51,456.06L21.89,478.03L26.27,492.55L30.64,503.73L35.02,511.61L43.78,522.63L48.15,526.8L61.29,534.99L65.66,536.54L78.8,541.3L83.17,542.42L105.06,546.89L109.44,547.59L118.19,549.14L122.57,549.67L135.7,551.61L140.08,552.16L196.99,558.33L201.37,558.63L218.88,560.47L223.25,560.62L240.76,562.56L245.14,562.52L284.54,566.06L288.92,566.09L306.43,567.7L310.8,567.98L332.69,569.84L337.07,569.64L350.2,571.06L354.58,571.05L372.09,572.32L376.47,572.43L398.35,574L402.73,573.99L437.75,576.68L442.13,576.24L464.02,577.89L468.39,577.95L494.66,579.53L499.04,579.9L573.45,583.66L577.83,584.01L674.14,588.91L678.51,588.82L687.27,589.65L691.65,589.64L704.78,590.61L709.16,590.73L731.04,591.44L735.42,591.75L752.93,592.82L757.31,592.64L766.06,593.57L770.44,593.64L796.71,594.58L801.08,594.86L871.12,598L875.5,598.63L888.63,598.95L893.01,599.15L928.03,600.56L932.41,600.47L949.92,601.45L954.3,601.69L1090,607.05" style="vector-effect: none; fill: none; stroke: rgb(99, 110, 250); stroke-opacity: 1; stroke-width: 2px; opacity: 1;"/></g><g class="points"/><g class="text"/></g><g class="trace scatter tracea79879" style="stroke-miterlimit: 2; opacity: 1;"><g class="fills"/><g class="errorbars"/><g class="lines"><path class="js-line" d="M0,215.79L4.38,338.2L8.76,402.74L13.13,441.35L17.51,469.16L21.89,486.48L26.27,499.09L30.64,509.42L35.02,515.66L39.4,522.51L43.78,526.05L48.15,527.82L52.53,532.72L61.29,537.2L65.66,537.73L70.04,539.86L74.42,539.61L78.8,539.85L83.17,542L87.55,543.63L91.93,544.2L96.31,546.04L100.68,546.7L109.44,547.54L113.82,547.66L118.19,546.68L122.57,548.85L126.95,548.65L131.33,549.36L140.08,550.64L144.46,550.61L153.21,549.21L157.59,549.65L166.35,552.77L170.72,552L175.1,553.02L179.48,552.42L183.86,552.57L188.23,551.37L192.61,551.69L196.99,553.93L201.37,553.36L205.74,554.09L210.12,553.44L214.5,554.78L218.88,553.96L223.25,554.87L232.01,554.53L236.39,555.75L245.14,554.38L249.52,556.07L253.9,555.96L258.27,556.65L267.03,555.43L271.41,557.12L284.54,557.32L288.92,556.76L293.29,556.04L297.67,557.74L306.43,557.19L310.8,558.03L315.18,558.63L319.56,558.36L323.94,557.02L328.31,558.61L332.69,558.88L337.07,557.81L341.45,559.5L345.82,559.29L354.58,558.22L358.96,558.49L363.33,559.01L367.71,560.43L372.09,559.29L376.47,557.24L380.84,560.04L385.22,559.98L393.98,560.63L398.35,559.3L402.73,561.2L407.11,560.47L411.49,561.57L415.86,560.71L420.24,561.73L424.62,561.19L433.37,560.58L437.75,561.21L442.13,561.47L446.51,562.93L455.26,562.25L459.64,562.07L468.39,561.94L472.77,563.15L477.15,561.72L481.53,561.36L485.9,563.14L490.28,562.93L494.66,563.01L499.04,561.56L507.79,563.74L512.17,562.52L516.55,563.74L520.92,563.03L525.3,562.9L529.68,563.85L534.06,563.68L538.43,561.94L542.81,563.97L547.19,561.85L551.57,563.79L555.94,564.3L560.32,561.67L564.7,564.31L573.45,564.03L577.83,562.83L582.21,564.57L586.59,562.57L590.96,561.64L595.34,564.57L604.1,565.19L608.47,562.85L612.85,565.26L617.23,565.66L621.61,564.19L625.98,565.21L634.74,564.01L639.12,565.51L643.49,564.97L647.87,565.92L656.63,564.41L661,565.04L687.27,565.56L691.65,564.9L696.02,565.71L700.4,565.56L704.78,565.45L709.16,566.58L722.29,564.57L726.67,566.07L731.04,564.95L735.42,565.52L739.8,565.33L744.18,563.14L748.55,566.13L752.93,566.06L757.31,565.89L761.69,566.7L766.06,565.33L770.44,566.69L783.57,567.28L787.95,564.37L792.33,564.64L796.71,566.27L801.08,565.14L805.46,566.25L809.84,564.25L814.22,567.93L818.59,564.87L822.97,565.91L827.35,564.93L831.73,566.37L853.61,567.23L857.99,565.78L866.75,565.14L871.12,566.9L875.5,566.73L879.88,565.54L884.26,567.21L888.63,565.92L893.01,567.31L897.39,567L910.52,566.75L914.9,565.78L919.28,566.05L923.65,565.13L928.03,566.81L932.41,566.5L936.79,566.19L941.16,566.64L945.54,566.95L949.92,566.35L954.3,566.83L958.67,565.81L963.05,565.1L967.43,566.84L976.18,564.22L980.56,566.34L989.32,566.84L993.69,565.96L998.07,565.92L1002.45,566.86L1015.58,566.66L1019.96,562.75L1028.71,566.18L1033.09,565.59L1041.85,566.35L1046.22,565.28L1050.6,566.29L1054.98,566.13L1059.36,565.47L1063.73,565.83L1068.11,566.71L1072.49,566.41L1076.87,563.99L1081.24,566.32L1085.62,565.14L1090,566.88" style="vector-effect: none; fill: none; stroke: rgb(239, 85, 59); stroke-opacity: 1; stroke-width: 2px; opacity: 1;"/></g><g class="points"/><g class="text"/></g><g class="trace scatter trace1e585c" style="stroke-miterlimit: 2; opacity: 1;"><g class="fills"/><g class="errorbars"/><g class="lines"><path class="js-line" d="M0,571.52L1090,571.52" style="vector-effect: none; fill: none; stroke: rgb(0, 204, 150); stroke-opacity: 1; stroke-width: 2px; opacity: 1;"/></g><g class="points"/><g class="text"/></g></g></g><g class="overplot"/><path class="xlines-above crisp" d="M0,0" style="fill: none;"/><path class="ylines-above crisp" d="M0,0" style="fill: none;"/><g class="overlines-above"/><g class="xaxislayer-above"><g class="xtick"><text text-anchor="middle" x="0" y="692" transform="translate(81.4,0)" style="font-family: 'Open Sans', verdana, arial, sans-serif; font-size: 12px; fill: rgb(42, 63, 95); fill-opacity: 1; white-space: pre; opacity: 1;">10</text></g><g class="xtick"><text text-anchor="middle" x="0" y="692" style="font-family: 'Open Sans', verdana, arial, sans-serif; font-size: 12px; fill: rgb(42, 63, 95); fill-opacity: 1; white-space: pre; opacity: 1;" transform="translate(125.17,0)">20</text></g><g class="xtick"><text text-anchor="middle" x="0" y="692" style="font-family: 'Open Sans', verdana, arial, sans-serif; font-size: 12px; fill: rgb(42, 63, 95); fill-opacity: 1; white-space: pre; opacity: 1;" transform="translate(168.95,0)">30</text></g><g class="xtick"><text text-anchor="middle" x="0" y="692" style="font-family: 'Open Sans', verdana, arial, sans-serif; font-size: 12px; fill: rgb(42, 63, 95); fill-opacity: 1; white-space: pre; opacity: 1;" transform="translate(212.72,0)">40</text></g><g class="xtick"><text text-anchor="middle" x="0" y="692" style="font-family: 'Open Sans', verdana, arial, sans-serif; font-size: 12px; fill: rgb(42, 63, 95); fill-opacity: 1; white-space: pre; opacity: 1;" transform="translate(256.5,0)">50</text></g><g class="xtick"><text text-anchor="middle" x="0" y="692" style="font-family: 'Open Sans', verdana, arial, sans-serif; font-size: 12px; fill: rgb(42, 63, 95); fill-opacity: 1; white-space: pre; opacity: 1;" transform="translate(300.27,0)">60</text></g><g class="xtick"><text text-anchor="middle" x="0" y="692" style="font-family: 'Open Sans', verdana, arial, sans-serif; font-size: 12px; fill: rgb(42, 63, 95); fill-opacity: 1; white-space: pre; opacity: 1;" transform="translate(344.05,0)">70</text></g><g class="xtick"><text text-anchor="middle" x="0" y="692" style="font-family: 'Open Sans', verdana, arial, sans-serif; font-size: 12px; fill: rgb(42, 63, 95); fill-opacity: 1; white-space: pre; opacity: 1;" transform="translate(387.82,0)">80</text></g><g class="xtick"><text text-anchor="middle" x="0" y="692" style="font-family: 'Open Sans', verdana, arial, sans-serif; font-size: 12px; fill: rgb(42, 63, 95); fill-opacity: 1; white-space: pre; opacity: 1;" transform="translate(431.6,0)">90</text></g><g class="xtick"><text text-anchor="middle" x="0" y="692" style="font-family: 'Open Sans', verdana, arial, sans-serif; font-size: 12px; fill: rgb(42, 63, 95); fill-opacity: 1; white-space: pre; opacity: 1;" transform="translate(475.37,0)">100</text></g><g class="xtick"><text text-anchor="middle" x="0" y="692" style="font-family: 'Open Sans', verdana, arial, sans-serif; font-size: 12px; fill: rgb(42, 63, 95); fill-opacity: 1; white-space: pre; opacity: 1;" transform="translate(519.15,0)">110</text></g><g class="xtick"><text text-anchor="middle" x="0" y="692" style="font-family: 'Open Sans', verdana, arial, sans-serif; font-size: 12px; fill: rgb(42, 63, 95); fill-opacity: 1; white-space: pre; opacity: 1;" transform="translate(562.92,0)">120</text></g><g class="xtick"><text text-anchor="middle" x="0" y="692" style="font-family: 'Open Sans', verdana, arial, sans-serif; font-size: 12px; fill: rgb(42, 63, 95); fill-opacity: 1; white-space: pre; opacity: 1;" transform="translate(606.7,0)">130</text></g><g class="xtick"><text text-anchor="middle" x="0" y="692" style="font-family: 'Open Sans', verdana, arial, sans-serif; font-size: 12px; fill: rgb(42, 63, 95); fill-opacity: 1; white-space: pre; opacity: 1;" transform="translate(650.47,0)">140</text></g><g class="xtick"><text text-anchor="middle" x="0" y="692" style="font-family: 'Open Sans', verdana, arial, sans-serif; font-size: 12px; fill: rgb(42, 63, 95); fill-opacity: 1; white-space: pre; opacity: 1;" transform="translate(694.25,0)">150</text></g><g class="xtick"><text text-anchor="middle" x="0" y="692" style="font-family: 'Open Sans', verdana, arial, sans-serif; font-size: 12px; fill: rgb(42, 63, 95); fill-opacity: 1; white-space: pre; opacity: 1;" transform="translate(738.02,0)">160</text></g><g class="xtick"><text text-anchor="middle" x="0" y="692" style="font-family: 'Open Sans', verdana, arial, sans-serif; font-size: 12px; fill: rgb(42, 63, 95); fill-opacity: 1; white-space: pre; opacity: 1;" transform="translate(781.8,0)">170</text></g><g class="xtick"><text text-anchor="middle" x="0" y="692" style="font-family: 'Open Sans', verdana, arial, sans-serif; font-size: 12px; fill: rgb(42, 63, 95); fill-opacity: 1; white-space: pre; opacity: 1;" transform="translate(825.57,0)">180</text></g><g class="xtick"><text text-anchor="middle" x="0" y="692" style="font-family: 'Open Sans', verdana, arial, sans-serif; font-size: 12px; fill: rgb(42, 63, 95); fill-opacity: 1; white-space: pre; opacity: 1;" transform="translate(869.35,0)">190</text></g><g class="xtick"><text text-anchor="middle" x="0" y="692" style="font-family: 'Open Sans', verdana, arial, sans-serif; font-size: 12px; fill: rgb(42, 63, 95); fill-opacity: 1; white-space: pre; opacity: 1;" transform="translate(913.12,0)">200</text></g><g class="xtick"><text text-anchor="middle" x="0" y="692" style="font-family: 'Open Sans', verdana, arial, sans-serif; font-size: 12px; fill: rgb(42, 63, 95); fill-opacity: 1; white-space: pre; opacity: 1;" transform="translate(956.9,0)">210</text></g><g class="xtick"><text text-anchor="middle" x="0" y="692" style="font-family: 'Open Sans', verdana, arial, sans-serif; font-size: 12px; fill: rgb(42, 63, 95); fill-opacity: 1; white-space: pre; opacity: 1;" transform="translate(1000.67,0)">220</text></g><g class="xtick"><text text-anchor="middle" x="0" y="692" style="font-family: 'Open Sans', verdana, arial, sans-serif; font-size: 12px; fill: rgb(42, 63, 95); fill-opacity: 1; white-space: pre; opacity: 1;" transform="translate(1044.45,0)">230</text></g><g class="xtick"><text text-anchor="middle" x="0" y="692" style="font-family: 'Open Sans', verdana, arial, sans-serif; font-size: 12px; fill: rgb(42, 63, 95); fill-opacity: 1; white-space: pre; opacity: 1;" transform="translate(1088.22,0)">240</text></g><g class="xtick"><text text-anchor="middle" x="0" y="692" style="font-family: 'Open Sans', verdana, arial, sans-serif; font-size: 12px; fill: rgb(42, 63, 95); fill-opacity: 1; white-space: pre; opacity: 1;" transform="translate(1132,0)">250</text></g></g><g class="yaxislayer-above"><g class="ytick"><text text-anchor="end" x="41" y="4.199999999999999" transform="translate(0,658.97)" style="font-family: 'Open Sans', verdana, arial, sans-serif; font-size: 12px; fill: rgb(42, 63, 95); fill-opacity: 1; white-space: pre; opacity: 1;">0.3</text></g><g class="ytick"><text text-anchor="end" x="41" y="4.199999999999999" style="font-family: 'Open Sans', verdana, arial, sans-serif; font-size: 12px; fill: rgb(42, 63, 95); fill-opacity: 1; white-space: pre; opacity: 1;" transform="translate(0,597.37)">0.4</text></g><g class="ytick"><text text-anchor="end" x="41" y="4.199999999999999" style="font-family: 'Open Sans', verdana, arial, sans-serif; font-size: 12px; fill: rgb(42, 63, 95); fill-opacity: 1; white-space: pre; opacity: 1;" transform="translate(0,535.76)">0.5</text></g><g class="ytick"><text text-anchor="end" x="41" y="4.199999999999999" style="font-family: 'Open Sans', verdana, arial, sans-serif; font-size: 12px; fill: rgb(42, 63, 95); fill-opacity: 1; white-space: pre; opacity: 1;" transform="translate(0,474.15)">0.6</text></g><g class="ytick"><text text-anchor="end" x="41" y="4.199999999999999" style="font-family: 'Open Sans', verdana, arial, sans-serif; font-size: 12px; fill: rgb(42, 63, 95); fill-opacity: 1; white-space: pre; opacity: 1;" transform="translate(0,412.54)">0.7</text></g><g class="ytick"><text text-anchor="end" x="41" y="4.199999999999999" style="font-family: 'Open Sans', verdana, arial, sans-serif; font-size: 12px; fill: rgb(42, 63, 95); fill-opacity: 1; white-space: pre; opacity: 1;" transform="translate(0,350.93)">0.8</text></g><g class="ytick"><text text-anchor="end" x="41" y="4.199999999999999" style="font-family: 'Open Sans', verdana, arial, sans-serif; font-size: 12px; fill: rgb(42, 63, 95); fill-opacity: 1; white-space: pre; opacity: 1;" transform="translate(0,289.32)">0.9</text></g><g class="ytick"><text text-anchor="end" x="41" y="4.199999999999999" style="font-family: 'Open Sans', verdana, arial, sans-serif; font-size: 12px; fill: rgb(42, 63, 95); fill-opacity: 1; white-space: pre; opacity: 1;" transform="translate(0,227.72)">1</text></g><g class="ytick"><text text-anchor="end" x="41" y="4.199999999999999" style="font-family: 'Open Sans', verdana, arial, sans-serif; font-size: 12px; fill: rgb(42, 63, 95); fill-opacity: 1; white-space: pre; opacity: 1;" transform="translate(0,166.11)">1.1</text></g><g class="ytick"><text text-anchor="end" x="41" y="4.199999999999999" style="font-family: 'Open Sans', verdana, arial, sans-serif; font-size: 12px; fill: rgb(42, 63, 95); fill-opacity: 1; white-space: pre; opacity: 1;" transform="translate(0,104.5)">1.2</text></g><g class="ytick"><text text-anchor="end" x="41" y="4.199999999999999" style="font-family: 'Open Sans', verdana, arial, sans-serif; font-size: 12px; fill: rgb(42, 63, 95); fill-opacity: 1; white-space: pre; opacity: 1;" transform="translate(0,42.89)">1.3</text></g></g><g class="overaxes-above"/></g></g><g class="polarlayer"/><g class="smithlayer"/><g class="ternarylayer"/><g class="geolayer"/><g class="funnelarealayer"/><g class="pielayer"/><g class="iciclelayer"/><g class="treemaplayer"/><g class="sunburstlayer"/><g class="glimages"/><defs id="topdefs-323c67"><g class="clips"/><clipPath id="legend323c67"><rect width="126" height="86" x="0" y="0"/></clipPath></defs><g class="layer-above"><g class="imagelayer"/><g class="shapelayer"/></g><g class="infolayer"><g class="legend" pointer-events="all" transform="translate(1153.8,40)"><rect class="bg" shape-rendering="crispEdges" style="stroke: rgb(68, 68, 68); stroke-opacity: 1; fill: rgb(0, 0, 0); fill-opacity: 0; stroke-width: 0px;" width="126" height="86" x="0" y="0"/><g class="scrollbox" transform="" clip-path="url(#legend323c67)"><text class="legendtitletext" text-anchor="start" x="2" y="18.2" style="font-family: 'Open Sans', verdana, arial, sans-serif; font-size: 14px; fill: rgb(42, 63, 95); fill-opacity: 1; white-space: pre;">variable</text><g class="groups" transform=""><g class="traces" transform="translate(0,32.7)" style="opacity: 1;"><text class="legendtext" text-anchor="start" x="40" y="4.680000000000001" style="font-family: 'Open Sans', verdana, arial, sans-serif; font-size: 12px; fill: rgb(42, 63, 95); fill-opacity: 1; white-space: pre;">Training Loss</text><g class="layers" style="opacity: 1;"><g class="legendfill"/><g class="legendlines"><path class="js-line" d="M5,0h30" style="fill: none; stroke: rgb(99, 110, 250); stroke-opacity: 1; stroke-width: 2px;"/></g><g class="legendsymbols"><g class="legendpoints"/></g></g><rect class="legendtoggle" x="0" y="-9.5" width="120.5" height="19" style="fill: rgb(0, 0, 0); fill-opacity: 0;"/></g></g><g class="groups" transform=""><g class="traces" transform="translate(0,51.7)" style="opacity: 1;"><text class="legendtext" text-anchor="start" x="40" y="4.680000000000001" style="font-family: 'Open Sans', verdana, arial, sans-serif; font-size: 12px; fill: rgb(42, 63, 95); fill-opacity: 1; white-space: pre;">Validation Loss</text><g class="layers" style="opacity: 1;"><g class="legendfill"/><g class="legendlines"><path class="js-line" d="M5,0h30" style="fill: none; stroke: rgb(239, 85, 59); stroke-opacity: 1; stroke-width: 2px;"/></g><g class="legendsymbols"><g class="legendpoints"/></g></g><rect class="legendtoggle" x="0" y="-9.5" width="120.5" height="19" style="fill: rgb(0, 0, 0); fill-opacity: 0;"/></g></g><g class="groups" transform=""><g class="traces" transform="translate(0,70.7)" style="opacity: 1;"><text class="legendtext" text-anchor="start" x="40" y="4.680000000000001" style="font-family: 'Open Sans', verdana, arial, sans-serif; font-size: 12px; fill: rgb(42, 63, 95); fill-opacity: 1; white-space: pre;">Testing Loss</text><g class="layers" style="opacity: 1;"><g class="legendfill"/><g class="legendlines"><path class="js-line" d="M5,0h30" style="fill: none; stroke: rgb(0, 204, 150); stroke-opacity: 1; stroke-width: 2px;"/></g><g class="legendsymbols"><g class="legendpoints"/></g></g><rect class="legendtoggle" x="0" y="-9.5" width="120.5" height="19" style="fill: rgb(0, 0, 0); fill-opacity: 0;"/></g></g></g><rect class="scrollbar" rx="20" ry="3" width="0" height="0" style="fill: rgb(128, 139, 164); fill-opacity: 1;" x="0" y="0"/></g><g class="g-gtitle"><text class="gtitle" x="64" y="20" text-anchor="start" dy="0em" style="font-family: 'Open Sans', verdana, arial, sans-serif; font-size: 17px; fill: rgb(42, 63, 95); opacity: 1; font-weight: normal; white-space: pre;">Loss</text></g><g class="g-xtitle" transform="translate(0,-2.2999999999999545)"><text class="xtitle" x="587" y="719.3" text-anchor="middle" style="font-family: 'Open Sans', verdana, arial, sans-serif; font-size: 14px; fill: rgb(42, 63, 95); opacity: 1; font-weight: normal; white-space: pre;">Epochs</text></g><g class="g-ytitle" transform="translate(12.9873046875,0)"><text class="ytitle" transform="rotate(-90,0.012500000000002842,359.5)" x="0.012500000000002842" y="359.5" text-anchor="middle" style="font-family: 'Open Sans', verdana, arial, sans-serif; font-size: 14px; fill: rgb(42, 63, 95); opacity: 1; font-weight: normal; white-space: pre;">Loss</text></g></g></svg>